<svg width="224" height="32" viewBox="0 0 224 32" fill="none" xmlns="http://www.w3.org/2000/svg">
<rect x="48" width="32" height="32" fill="#E44542"/>
<g clip-path="url(#clip0_56415_1918)">
<rect x="48" width="32" height="32" rx="16" fill="#E44542"/>
<path d="M63.9999 8.56027C65.257 8.56027 66.2795 9.5828 66.2795 10.8399C66.2795 12.0959 65.2567 13.1184 63.9999 13.1184C62.7436 13.1184 61.7208 12.0959 61.7208 10.8399C61.7205 9.58254 62.7438 8.56027 63.9999 8.56027ZM63.9999 16.3436C67.0364 16.3436 69.5057 13.8751 69.5057 10.8399C69.5057 7.80312 67.0366 5.3335 63.9999 5.3335C60.9636 5.3335 58.494 7.80339 58.494 10.8399C58.494 13.8751 60.9636 16.3436 63.9999 16.3436ZM66.2273 20.8346C67.3599 20.5767 68.4408 20.1291 69.4243 19.5109C69.7864 19.2831 70.0431 18.9208 70.138 18.5037C70.233 18.0866 70.1583 17.6489 69.9306 17.2868C69.8179 17.1074 69.671 16.9519 69.4982 16.8293C69.3254 16.7067 69.1301 16.6193 68.9235 16.5722C68.717 16.5251 68.5031 16.5192 68.2942 16.5548C68.0854 16.5905 67.8856 16.6669 67.7063 16.7798C65.4507 18.1979 62.5475 18.1969 60.2937 16.7798C60.1144 16.6669 59.9147 16.5904 59.7058 16.5548C59.497 16.5191 59.2831 16.525 59.0766 16.5721C58.87 16.6192 58.6747 16.7066 58.502 16.8292C58.3292 16.9519 58.1823 17.1074 58.0697 17.2868C57.8419 17.6488 57.7671 18.0865 57.8619 18.5035C57.9567 18.9206 58.2133 19.2829 58.5752 19.5109C59.5586 20.1289 60.6392 20.5764 61.7716 20.8346L58.6938 23.913C58.3913 24.2156 58.2214 24.6259 58.2215 25.0538C58.2216 25.4816 58.3916 25.8919 58.6942 26.1943C58.9967 26.4968 59.4071 26.6667 59.8349 26.6666C60.2627 26.6666 60.673 26.4965 60.9755 26.194L63.9993 23.1696L67.025 26.1942C67.1746 26.344 67.3523 26.4629 67.5479 26.544C67.7435 26.6251 67.9531 26.6668 68.1648 26.6668C68.3766 26.6668 68.5862 26.6251 68.7818 26.544C68.9774 26.4629 69.1551 26.344 69.3047 26.1942C69.4547 26.0446 69.5737 25.8669 69.655 25.6712C69.7362 25.4755 69.778 25.2658 69.778 25.0539C69.778 24.842 69.7362 24.6322 69.655 24.4365C69.5737 24.2409 69.4547 24.0631 69.3047 23.9135L66.2273 20.8346Z" fill="white"/>
</g>
<path fill-rule="evenodd" clip-rule="evenodd" d="M32 0H0V32H13.3333V20.4446H9.33333V16.0001H13.3333V12.4446C13.3333 8.44455 15.9111 6.22233 19.5556 6.22233C20.7111 6.22233 21.9556 6.40011 23.1111 6.57789V10.6668H21.0667C19.1111 10.6668 18.6667 11.6446 18.6667 12.889V16.0001H22.9333L22.2222 20.4446H18.6667V32H32V0Z" fill="#E44542"/>
<path fill-rule="evenodd" clip-rule="evenodd" d="M176 0H144V32H176V0ZM171.506 9.96265C171.229 8.93464 170.418 8.1241 169.39 7.84733C167.512 7.33333 160 7.33333 160 7.33333C160 7.33333 152.488 7.33333 150.61 7.82757C149.601 8.10433 148.771 8.93464 148.494 9.96265C148 11.8407 148 15.7353 148 15.7353C148 15.7353 148 19.6496 148.494 21.5079C148.771 22.5359 149.582 23.3464 150.61 23.6232C152.507 24.1372 160 24.1372 160 24.1372C160 24.1372 167.512 24.1372 169.39 23.643C170.418 23.3662 171.229 22.5557 171.506 21.5277C172 19.6496 172 15.755 172 15.755C172 15.755 172.02 11.8407 171.506 9.96265ZM157.608 19.196L163.855 15.598L157.608 12V19.196Z" fill="#E44542"/>
<rect width="32" height="32" transform="translate(192)" fill="#E44542"/>
<path d="M208.001 4.36377C204.841 4.36377 204.444 4.37759 203.203 4.43407C201.964 4.4908 201.119 4.68692 200.379 4.97468C199.613 5.27189 198.964 5.66947 198.317 6.3165C197.67 6.96328 197.273 7.6125 196.974 8.37759C196.686 9.11771 196.49 9.96353 196.434 11.2018C196.378 12.443 196.364 12.8399 196.364 16.0001C196.364 19.1604 196.378 19.5558 196.434 20.797C196.491 22.0358 196.687 22.8813 196.975 23.6212C197.272 24.3866 197.67 25.0358 198.317 25.6826C198.963 26.3298 199.612 26.7284 200.377 27.0256C201.118 27.3133 201.963 27.5095 203.202 27.5662C204.443 27.6227 204.839 27.6365 207.999 27.6365C211.16 27.6365 211.555 27.6227 212.796 27.5662C214.035 27.5095 214.882 27.3133 215.622 27.0256C216.387 26.7284 217.035 26.3298 217.682 25.6826C218.329 25.0358 218.726 24.3866 219.025 23.6215C219.311 22.8813 219.507 22.0355 219.565 20.7972C219.621 19.556 219.636 19.1604 219.636 16.0001C219.636 12.8399 219.621 12.4433 219.565 11.2021C219.507 9.96328 219.311 9.11771 219.025 8.37783C218.726 7.6125 218.329 6.96328 217.682 6.3165C217.034 5.66922 216.387 5.27165 215.621 4.97468C214.879 4.68692 214.033 4.4908 212.795 4.43407C211.553 4.37759 211.158 4.36377 207.997 4.36377H208.001ZM206.957 6.46074C207.267 6.46025 207.612 6.46074 208.001 6.46074C211.108 6.46074 211.476 6.47189 212.703 6.52765C213.837 6.57953 214.453 6.7691 214.863 6.92838C215.406 7.13928 215.793 7.39141 216.2 7.79868C216.608 8.20595 216.86 8.59383 217.071 9.13686C217.23 9.54656 217.42 10.1623 217.472 11.2969C217.527 12.5235 217.54 12.892 217.54 15.9975C217.54 19.1029 217.527 19.4714 217.472 20.6981C217.42 21.8326 217.23 22.4484 217.071 22.8581C216.86 23.4011 216.608 23.7878 216.2 24.1948C215.793 24.6021 215.406 24.8542 214.863 25.0651C214.453 25.2251 213.837 25.4142 212.703 25.4661C211.476 25.5218 211.108 25.5339 208.001 25.5339C204.894 25.5339 204.525 25.5218 203.299 25.4661C202.164 25.4137 201.549 25.2241 201.138 25.0649C200.595 24.8539 200.207 24.6018 199.8 24.1946C199.393 23.7873 199.141 23.4004 198.929 22.8571C198.77 22.4474 198.58 21.8316 198.529 20.6971C198.473 19.4704 198.462 19.1019 198.462 15.9946C198.462 12.8872 198.473 12.5206 198.529 11.294C198.58 10.1594 198.77 9.54365 198.929 9.13347C199.14 8.59044 199.393 8.20256 199.8 7.79528C200.207 7.38801 200.595 7.13589 201.138 6.9245C201.548 6.7645 202.164 6.57541 203.299 6.52328C204.372 6.4748 204.788 6.46025 206.957 6.45783V6.46074ZM214.212 8.39286C213.441 8.39286 212.816 9.01759 212.816 9.78874C212.816 10.5596 213.441 11.1851 214.212 11.1851C214.983 11.1851 215.608 10.5596 215.608 9.78874C215.608 9.01783 214.983 8.39237 214.212 8.39237V8.39286ZM208.001 10.0244C204.701 10.0244 202.025 12.7 202.025 16.0001C202.025 19.3003 204.701 21.9747 208.001 21.9747C211.301 21.9747 213.975 19.3003 213.975 16.0001C213.975 12.7 211.301 10.0244 208.001 10.0244H208.001ZM208.001 12.1213C210.143 12.1213 211.879 13.8578 211.879 16.0001C211.879 18.1422 210.143 19.8789 208.001 19.8789C205.859 19.8789 204.122 18.1422 204.122 16.0001C204.122 13.8578 205.859 12.1213 208.001 12.1213Z" fill="white"/>
<rect x="96" width="32" height="32" fill="#E44542"/>
<g clip-path="url(#clip1_56415_1918)">
<rect x="96" width="32" height="32" rx="16" fill="#E44542"/>
<path fill-rule="evenodd" clip-rule="evenodd" d="M122.177 11.0229C122.326 10.5285 122.177 10.165 121.472 10.165H119.138C118.544 10.165 118.271 10.4789 118.122 10.8252C118.122 10.8252 116.935 13.718 115.254 15.5971C114.71 16.1411 114.463 16.314 114.166 16.314C114.018 16.314 113.803 16.1411 113.803 15.6467V11.0229C113.803 10.4294 113.631 10.165 113.136 10.165H109.469C109.098 10.165 108.875 10.4404 108.875 10.7015C108.875 11.2641 109.715 11.3938 109.802 12.9762V16.4132C109.802 17.1667 109.666 17.3034 109.369 17.3034C108.578 17.3034 106.654 14.3974 105.512 11.0724C105.288 10.4261 105.064 10.165 104.468 10.165H102.134C101.467 10.165 101.333 10.4789 101.333 10.8252C101.333 11.4433 102.125 14.5094 105.018 18.5643C106.946 21.3333 109.663 22.8347 112.136 22.8347C113.62 22.8347 113.803 22.5013 113.803 21.9269V19.834C113.803 19.1671 113.944 19.0341 114.413 19.0341C114.76 19.0341 115.353 19.2071 116.738 20.5423C118.32 22.1245 118.581 22.8347 119.471 22.8347H121.805C122.472 22.8347 122.805 22.5013 122.613 21.8433C122.402 21.1874 121.647 20.2362 120.644 19.1083C120.1 18.4653 119.284 17.773 119.037 17.4269C118.691 16.9818 118.79 16.7841 119.037 16.3887C119.037 16.3887 121.881 12.3831 122.177 11.0231V11.0229Z" fill="white"/>
</g>
<defs>
<clipPath id="clip0_56415_1918">
<rect width="32" height="32" fill="white" transform="translate(48)"/>
</clipPath>
<clipPath id="clip1_56415_1918">
<rect width="32" height="32" fill="white" transform="translate(96)"/>
</clipPath>
</defs>
</svg>
